<svg width="959" height="959" viewBox="0 0 959 959" fill="none" xmlns="http://www.w3.org/2000/svg">
<circle cx="479.5" cy="479.5" r="479.5" fill="white"/>
<circle cx="479.5" cy="479.5" r="378.5" fill="url(#paint0_radial_47_688)"/>
<path d="M220.523 410.364V336.545H513.818V410.364H412.318V674H322.023V410.364H220.523Z" fill="#242E3D"/>
<path d="M508.75 674V336.545H654.409C679.455 336.545 701.369 341.489 720.153 351.375C738.938 361.261 753.547 375.157 763.983 393.062C774.419 410.968 779.636 431.894 779.636 455.841C779.636 480.008 774.254 500.934 763.489 518.619C752.833 536.305 737.839 549.926 718.506 559.483C699.282 569.04 676.818 573.818 651.114 573.818H564.114V502.636H632.659C643.424 502.636 652.597 500.769 660.176 497.034C667.866 493.189 673.742 487.752 677.807 480.722C681.981 473.691 684.068 465.398 684.068 455.841C684.068 446.174 681.981 437.936 677.807 431.125C673.742 424.205 667.866 418.932 660.176 415.307C652.597 411.572 643.424 409.705 632.659 409.705H600.364V674H508.75Z" fill="#FFD447"/>
<defs>
<radialGradient id="paint0_radial_47_688" cx="0" cy="0" r="1" gradientUnits="userSpaceOnUse" gradientTransform="translate(479.5 479.5) rotate(90) scale(378.5)">
<stop offset="0.817708" stop-color="#FAFAFA" stop-opacity="0"/>
<stop offset="1" stop-color="#FAFAFA" stop-opacity="0.84"/>
</radialGradient>
</defs>
</svg>
